<?xml version="1.0" encoding="UTF-8"?>
<svg width="240px" height="57px" viewBox="0 0 240 57" version="1.1" xmlns="http://www.w3.org/2000/svg" xmlns:xlink="http://www.w3.org/1999/xlink">
    <!-- Generator: Sketch 51.3 (57544) - http://www.bohemiancoding.com/sketch -->
    <title>Group</title>
    <desc>Created with Sketch.</desc>
    <defs>
        <polygon id="path-1" points="0.163055794 0.0318271493 9.7776824 0.0318271493 9.7776824 19.795352 0.163055794 19.795352"></polygon>
        <polygon id="path-3" points="0.0706094421 0.150366516 38.8210815 0.150366516 38.8210815 21.8188262 0.0706094421 21.8188262"></polygon>
    </defs>
    <g id="Welcome" stroke="none" stroke-width="1" fill="none" fill-rule="evenodd">
        <g id="Home--Hamburger-Effect" transform="translate(-80.000000, -32.000000)">
            <g id="Group" transform="translate(80.000000, 32.000000)">
                <polygon id="Fill-1" fill="#FFFFFF" points="51.0664635 19.225352 53.5514421 19.225352 59.4087811 35.8482027 59.4682661 35.7888814 59.3794249 31.3740896 59.3794249 19.225352 61.361485 19.225352 61.361485 38.9888769 58.8765064 38.9888769 53.0189099 22.3366235 52.9599399 22.3956869 53.0485236 26.8700579 53.0485236 38.9888769 51.0664635 38.9888769"></polygon>
                <path d="M76.0651159,21.8624661 L76.0061459,21.8624661 L73.8167897,31.1072986 L78.2542146,31.1072986 L76.0651159,21.8624661 Z M73.343485,32.8851312 L71.8051159,39.3741041 L69.852412,38.8409864 L74.8522403,19.2252489 L77.2187639,19.2252489 L82.2185923,38.8409864 L80.2658884,39.3741041 L78.7275193,32.8851312 L73.343485,32.8851312 Z" id="Fill-2" fill="#FFFFFF"></path>
                <polygon id="Fill-3" fill="#FFFFFF" points="94.9104206 21.0031846 90.6501631 21.0031846 90.6501631 19.225352 101.063897 19.225352 101.063897 21.0031846 96.8924807 21.0031846 96.8924807 38.9888769 94.9104206 38.9888769"></polygon>
                <polygon id="Fill-4" fill="#FFFFFF" points="114.731948 21.0031846 110.471691 21.0031846 110.471691 19.225352 120.885425 19.225352 120.885425 21.0031846 116.714009 21.0031846 116.714009 38.9888769 114.731948 38.9888769"></polygon>
                <polygon id="Fill-5" fill="#FFFFFF" points="131.269725 19.225352 140.884403 19.225352 140.884403 21.0031846 133.251785 21.0031846 133.251785 27.5218181 139.553073 27.5218181 139.553073 29.2999086 133.251785 29.2999086 133.251785 37.2110443 140.884403 37.2110443 140.884403 38.9888769 131.269725 38.9888769"></polygon>
                <g id="Group-26" transform="translate(0.000000, 0.107552)">
                    <path d="M153.221511,28.3033629 L156.120567,28.3033629 C157.836618,28.3033629 158.901682,27.0292452 158.901682,24.3623674 C158.901682,21.7847294 157.658936,20.8956842 155.647262,20.8956842 L153.221511,20.8956842 L153.221511,28.3033629 Z M151.239451,19.1178516 L156.564258,19.1178516 C158.516704,19.1178516 160.972584,20.8067023 160.972584,24.3623674 C160.972584,26.7922181 159.996103,29.1034262 157.570352,29.9328923 L161.65267,38.4073222 L159.877906,39.2667068 L155.440223,30.0811955 L153.221511,30.0811955 L153.221511,38.8813765 L151.239451,38.8813765 L151.239451,19.1178516 Z" id="Fill-6" fill="#FFFFFF"></path>
                    <path d="M176.149262,37.1035697 C177.924283,37.1035697 179.137416,35.7997914 179.137416,32.9255471 C179.137416,29.9922394 177.687631,29.0144701 175.61673,29.0144701 L173.457245,29.0144701 L173.457245,37.1035697 L176.149262,37.1035697 Z M175.232009,27.2366376 C177.273296,27.2366376 178.220163,26.1698864 178.220163,24.0957054 C178.220163,21.6661127 177.007288,20.89571 174.610893,20.89571 L173.457245,20.89571 L173.457245,27.2366376 L175.232009,27.2366376 Z M169.877588,38.8814023 L169.877588,37.1035697 L171.475185,37.1035697 L171.475185,20.89571 L169.877588,20.89571 L169.877588,19.1178774 L175.912609,19.1178774 C178.072352,19.1178774 180.291064,20.9253706 180.291064,24.0957054 C180.291064,25.7254928 179.640335,27.117995 178.190549,27.9180584 C180.409262,28.8958276 181.208318,30.5849362 181.208318,32.9554656 C181.208318,37.073909 178.959734,38.8814023 176.238103,38.8814023 L169.877588,38.8814023 Z" id="Fill-8" fill="#FFFFFF"></path>
                    <path d="M194.994567,21.754914 L194.935597,21.754914 L192.74624,30.9997466 L197.183665,30.9997466 L194.994567,21.754914 Z M192.272936,32.7775792 L190.734567,39.266552 L188.781863,38.7334344 L193.781691,19.1176968 L196.148215,19.1176968 L201.148043,38.7334344 L199.195339,39.266552 L197.65697,32.7775792 L192.272936,32.7775792 Z" id="Fill-10" fill="#FFFFFF"></path>
                    <path d="M217.626592,23.6216769 C217.301099,22.1698534 216.591142,20.7180299 214.904961,20.7180299 C213.040841,20.7180299 212.30127,22.2291747 212.30127,23.8883647 C212.30127,25.4884914 212.626764,25.9922063 215.733116,27.8587629 C218.158867,29.3108443 219.815691,30.5256407 219.815691,33.577591 C219.815691,36.6888624 218.158867,39.1481158 214.845476,39.1481158 C211.354918,39.1481158 210.082558,36.8369077 209.786936,33.6962335 L211.768996,33.4292878 C212.035262,35.6221113 212.508567,37.2813014 214.904961,37.2813014 C216.620755,37.2813014 217.833631,36.1258262 217.833631,33.7552968 C217.833631,31.1479982 216.147451,30.2589529 214.105906,29.0738172 C211.827966,27.7403783 210.31921,26.7920118 210.31921,23.8883647 C210.31921,21.2214869 212.094489,18.8512154 214.904961,18.8512154 C217.685562,18.8512154 219.046506,20.8364145 219.549425,23.3253285 L217.626592,23.6216769 Z" id="Fill-12" fill="#FFFFFF"></path>
                    <g id="Group-16" transform="translate(230.214592, 19.085973)">
                        <mask id="mask-2" fill="white">
                            <use xlink:href="#path-1"></use>
                        </mask>
                        <g id="Clip-15"></g>
                        <polygon id="Fill-14" fill="#FFFFFF" mask="url(#mask-2)" points="0.163055794 0.0318271493 9.77773391 0.0318271493 9.77773391 1.80965973 2.14511588 1.80965973 2.14511588 8.32829321 8.44640343 8.32829321 8.44640343 10.1063837 2.14511588 10.1063837 2.14511588 18.0175195 9.77773391 18.0175195 9.77773391 19.795352 0.163055794 19.795352"></polygon>
                    </g>
                    <g id="Group-19">
                        <mask id="mask-4" fill="white">
                            <use xlink:href="#path-3"></use>
                        </mask>
                        <g id="Clip-18"></g>
                        <path d="M4.44494421,15.8944371 L4.39653219,15.8616814 L4.46554506,15.8147403 L4.5144721,15.8474959 L4.44494421,15.8944371 Z M4.60434335,21.8188262 L4.64580258,16.489971 L19.0020258,6.78346425 L25.8899227,11.2372018 L34.236103,16.5823059 L34.270867,21.6558217 L38.8210815,18.7457267 L38.7760172,12.949781 L27.8737854,5.96766787 L18.877133,0.150314932 L0.124686695,12.8288172 L0.0706094421,18.7457267 L4.60434335,21.8188262 Z" id="Fill-17" fill="#FFFFFF" mask="url(#mask-4)"></path>
                    </g>
                    <polygon id="Fill-20" fill="#FFFFFF" points="7.98843133 38.3068652 8.09143133 38.2373652 8.01943133 38.1888652 7.91593133 38.2578652"></polygon>
                    <path d="M4.44494421,41.2516995 L4.39653219,41.2189439 L4.46554506,41.1720027 L4.5144721,41.2047584 L4.44494421,41.2516995 Z M5.15021459e-05,38.3070434 L0.0760171674,44.1029891 L18.8555021,56.7420299 L38.7935279,44.1029891 L38.8161888,38.3070434 L34.2672618,35.401333 L34.2497511,40.4325502 L18.9858026,50.1088805 L4.60872103,40.4325502 L4.58193991,35.6195321 L5.15021459e-05,38.3070434 Z" id="Fill-22" fill="#FFFFFF"></path>
                    <polygon id="Fill-24" fill="#FFFFFF" points="7.98843133 18.8939548 8.09143133 18.8244548 8.01943133 18.7759548 7.91593133 18.8449548"></polygon>
                </g>
            </g>
        </g>
    </g>
</svg>